<svg xmlns="http://www.w3.org/2000/svg" viewBox="0 0 24 24" role="img" aria-label="Agriculture and tea farmers icon">
  <path fill="#0b5d2a" d="M20.8 3.7C14.6 3.1 7.5 6 4.2 12.1c-2.3 4.3-.7 8.5 3.5 8.2 5-.4 10.7-4.9 12.6-10.2.8-2.1.9-4.3.5-6.4z"/>
  <path fill="#d7a62a" d="M4.3 20.3c-.3 0-.6-.2-.7-.5-.1-.4.1-.8.5-.9 6.6-2.1 11.3-7.6 14-13.9.2-.4.6-.5 1-.4.4.2.5.6.4 1-2.8 6.6-7.9 12.5-14.9 14.8h-.3z"/>
  <path fill="#0b5d2a" d="M9.7 15.1c.8-1.7 2.3-3.4 4.6-5-2 .2-4 .7-5.8 1.6-.4.2-.6.6-.4 1 .2.4.6.6 1 .4.3-.2.7-.3 1.1-.5-1.1 1.2-1.9 2.4-2.4 3.6-.2.4 0 .8.4 1 .4.1.8 0 1-.4.2-.6.5-1.1.5-1.7z"/>
</svg>

