<svg xmlns="http://www.w3.org/2000/svg" viewBox="0 0 24 24" role="img" aria-label="Community and women empowerment icon">
  <path fill="#0b5d2a" d="M16.5 11.5a3.5 3.5 0 1 0-3.3-4.7 5.6 5.6 0 0 1 3.2 4.7h.1z"/>
  <path fill="#0b5d2a" d="M8.5 12a4 4 0 1 0-4-4 4 4 0 0 0 4 4z"/>
  <path fill="#d7a62a" d="M8.5 13.5c-3.5 0-6.5 2.1-6.5 5V20a2 2 0 0 0 2 2h9.3a7.2 7.2 0 0 1-.3-2c0-2.3 1.2-4.3 3-5.4a9.2 9.2 0 0 0-7.5-1.1z"/>
  <path fill="#0b5d2a" d="M16.5 13.5c-2.5 0-4.5 1.8-4.5 4v2.7a1.8 1.8 0 0 0 1.8 1.8H21a1.8 1.8 0 0 0 1.8-1.8V17.5c0-2.2-2-4-4.3-4z"/>
</svg>

